# xmcd
#
# Track frame offsets:
# 150
# 17998
# 32408
# 46246
# 60537
# 81557
# 97018
# 111940
# 127833
# 145617
# 163244
# 177982
# 189776
# 203583
# 215791
# 232119
# 250180
# 262988
# 274791
# 287930
# 297740
# 308975
# 324679
# 338016
#
# Disc length: 4648 seconds
#
#
# Revision: 0
# Processed by: cddbd v1.5.2PL0 Copyright (c) Steve Scherf et al.
# Submitted via: FreeRIP 2.951 
#
DISCID=6f122618
DTITLE=K-Paz de la Sierra - Exitos
DYEAR=1900
DGENRE=Pasito Duranguense
TTITLE0=Intro
TTITLE1=Pero te vas a arrepentir
TTITLE2=Si tu te fueras de mi
TTITLE3=Mi credo
TTITLE4=Silueta de cristal
TTITLE5=Volvere
TTITLE6=Muñeca ojos de miel
TTITLE7=Con olor a hierba
TTITLE8=Un caballero
TTITLE9=Mi eterno amor secreto
TTITLE10=Amor no me ignores
TTITLE11=Imposible se me hace olvidarte
TTITLE12=Oh Carol
TTITLE13=No volveré
TTITLE14=Mi princesita y tu rey
TTITLE15=Anillo grabado
TTITLE16=Echame a mi la culpa
TTITLE17=Jumbalaya
TTITLE18=La pajarera
TTITLE19=Las tres tumbas
TTITLE20=Allá en el kiosko
TTITLE21=La Lupe
TTITLE22=Lucio Vázquez
TTITLE23=Necesito una compañera
EXTD=
EXTT0=
EXTT1=
EXTT2=
EXTT3=
EXTT4=
EXTT5=
EXTT6=
EXTT7=
EXTT8=
EXTT9=
EXTT10=
EXTT11=
EXTT12=
EXTT13=
EXTT14=
EXTT15=
EXTT16=
EXTT17=
EXTT18=
EXTT19=
EXTT20=
EXTT21=
EXTT22=
EXTT23=
PLAYORDER=
